<?xml version="1.0" encoding="UTF-8"?>
<svg id="Layer_1" data-name="Layer 1" xmlns="http://www.w3.org/2000/svg" viewBox="0 0 1024 1024">
  <defs>
    <style>
      .cls-1 {
        fill: #beddea;
      }

      .cls-2 {
        fill: #fefefe;
      }

      .cls-3 {
        fill: #aae036;
      }
    </style>
  </defs>
  <path d="M554.8,81.73c31.66-1.59,50.06,27.54,70.26,27.88,5.67.09,11.43-3.47,16.24-6.08,23.1-12.57,45.33-24.81,72.52-16.83,20.61,6.05,43.74,23.33,62.67,34.25,22.71,12.81,45.24,25.96,67.55,39.45,10.21,6.15,20.89,12.06,30.58,19.01,4.65,3.33,8.98,6.7,11.69,11.84,3.62,6.9,4.94,14.59,5.47,22.29,1.33,18.95.39,38.48.39,57.49l-.04,107.62.05,121.52c.01,21.63.86,43.66-.29,65.25-.6,11.22-2.52,22.33-5.75,33.09-14.19,46.02-44.38,54.71-76.39,83.34-13.07,11.69-23.85,25.42-36.08,37.91-24.94,25.48-59.82,46.85-93.24,58.98-10.96,3.98-23.99,6.22-35.62,6.99-10.06.66-26.18-3.56-35,1.2-17.03,9.21-34.29,17.82-51.16,27.35-40,23.08-79.67,46.73-119,70.94-17.54,10.79-35.17,21.45-52.86,31.99-13.58,8.15-28.12,18.63-43.27,23.43-22.24,7.04-34.67-9.25-52.47-18.69-34.34-18.22-67.69-38.73-100.86-59-14.24-8.7-30.7-16.94-43.43-27.71-4.88-4.13-10.58-11.87-12.34-18.02-4.67-16.34-2.28-55.38-2.29-73.46v-120.07s0-111.53,0-111.53c0-23.9-2.83-61.93,3.51-84.21,6.79-23.86,21.4-43.77,40.92-58.78,13.89-10.68,30.28-18.8,45.48-27.49l71.64-40.89c7.14-4.03,14.27-8.19,21.58-11.92,11.27-5.75,30.83-11.31,38.64-21.2,9.43-11.95,18.03-63.75,28.52-82.12,3.27-5.73,9.95-10.74,15.31-14.39,28.27-19.25,63.32-37.48,93.36-54.72,16.77-9.62,46.27-29.62,63.7-34.69Z"/>
  <path class="cls-2" d="M852.04,184.25c2.43-.08,4.9.19,7.3.64,6.59,1.21,12.43,5,16.21,10.52,4.09,6.07,4.42,12.09,4.84,19.21,1.43,24.84.38,50.21.39,75.11v141.82s-.01,91.3-.01,91.3c-.01,19.19,1.62,39.84-2.06,58.71-7.21,37.01-25.16,54.46-55.14,74.68,9.43-17.92,19.05-35.89,26.59-54.7,16.31-40.63,29.16-97.3,17.57-140.67-11.98-44.83-39.07-58.59-76.53-78.82-14.94-8.07-29.46-16.7-44.16-25.19-27-15.6-55.55-22.26-86.19-13.85-13.75,3.77-27.03,10.26-39.57,16.94-50.75,27.06-87.46,66.99-116.02,116.62-30.46,52.93-55.38,124.51-38.74,185.86,12.34,45.48,42.61,60.68,80.26,82.37,18.93,9.98,36.51,21.4,53.99,33.69-55.74,29.15-110.22,61.75-163.83,94.67-20.24,12.65-40.59,25.12-61.06,37.41-10.25,6.11-20.66,13.04-31.65,17.69-6.67,2.82-13.79,4.06-20.68,1.17-6.78-2.85-11.71-8.88-14.3-15.64-1.94-5.06-1.89-10.74-2.07-16.09-.77-23.03-.23-46.23-.24-69.28l-.02-126.97v-91.26c.02-17.36-.64-35.04.5-52.35.98-14.76,2.9-27.25,9.09-40.75,7.16-15.62,19.29-28.69,33.08-38.72,10.51-7.65,22.24-14.14,33.35-20.91,21.3-12.97,42.67-25.81,64.11-38.54,75.45-45.04,151.81-88.61,227.74-132.84l108.04-63.91c19.6-11.61,48.45-30.07,69.21-37.93Z"/>
  <path d="M405.44,495.97c2.26-.04,5.16.11,7.29.92,2.69,1.03,4.91,3.42,5.8,6.16,3.28,10.16,1.81,56.48-2.95,66.26-4.59,9.44-48.48,32.83-59.88,37.01-1.59-.07-3.07-.29-4.61-.7-3.28-.87-5.36-2.59-6.97-5.59-5.59-10.44-4.06-48.55-.39-59.73,1.24-3.75,2.88-7.53,5.68-10.4,8.65-8.87,43.65-27.59,56.03-33.94Z"/>
  <path class="cls-3" d="M407.61,507.25l.65,1.09c.51,10.67,1.22,44.14-1.41,52.95-2.74,9.17-42.88,28.66-53.04,34.31-.13-.16-.29-.31-.39-.49-1.77-3.04-1.07-45.39.18-50.08,3.32-12.48,42-30.71,54.02-37.78Z"/>
  <path class="cls-2" d="M774.44,401.22c.25-.04.5-.08.75-.11,18.99-2.61,36.08,2.75,51.2,14.26,19.8,15.07,30.13,38.38,33.47,62.58,8.73,63.17-26.94,149.34-64.34,198.85-36.3,48.06-87.23,88.92-148.36,97.39-20.29.7-37.42-1.67-53.74-14.65-21.44-17.06-31.25-43.18-34.34-69.67-7.53-64.54,31.41-148.97,70.8-198.65,35.58-44.88,86.21-83.29,144.55-90Z"/>
  <path d="M749.47,451.49c13.99-1.78,28.14,1.85,39.54,10.17,15.68,11.36,24.11,29.88,27.12,48.59,7.61,47.27-12.91,99.25-40.45,136.84-24.51,33.44-62.26,65.41-104.43,71.89l-.53.07c-15.24,1.81-29.96-.68-42.64-9.8-14.99-10.78-22.52-28.11-25.53-45.86-8.06-47.56,12.51-99.66,39.61-137.86,26.05-36.72,61.99-66.37,107.32-74.04Z"/>
  <path class="cls-3" d="M749.88,462.93c10.81-1.11,21.83.68,31.08,6.65,13.74,8.88,20.68,24.52,23.76,40.06,8.19,41.33-8.99,87.63-31.62,121.73-24.32,36.65-59.71,68.04-103.83,76.96-12.32,1.19-24.26-.73-34.57-7.97-12.75-8.96-18.85-23.67-21.25-38.63-7.34-45.62,12.37-94.47,38.71-130.82,23.73-32.75,56.61-61.44,97.73-67.97Z"/>
  <path d="M775.59,529.6c2.21.88,4.49,1.59,5.61,3.84,4.19,8.37-3.79,36.52-7.16,46.27-12.89,37.29-40.98,75.01-77.01,92.61-1.03-.21-2.31-.41-3.24-.92-1.95-1.09-2.25-2.39-2.63-4.42,2.68-7.53,25.28-19.99,32.26-26.8,9.81-9.56,18.83-21.73,25.86-33.47,6.42-10.69,11.63-22.06,15.54-33.91,2.16-6.7,3.98-13.64,4.97-20.61.79-5.6.45-13.17,2.46-18.38.64-1.65,2.08-3,3.33-4.21Z"/>
  <path class="cls-2" d="M687.97,96.1c7.99-.59,15.36-.87,23.05,1.72,16.45,5.54,32.7,17.16,47.63,25.9,28.53,16.7,56.92,33.22,84.92,50.82-12.27,7.97-25.64,14.48-38.4,21.67-18.47,10.53-36.8,21.29-55.01,32.27l-287.92,168.49c-26.31,15.29-52.49,30.81-78.54,46.55-18.05,10.9-37.32,21.21-52.94,35.54-18.39,16.87-27.67,37.82-34.78,61.23-27.29-17.49-56.4-32.69-84.24-49.39-9.88-5.88-61.63-33.43-64.44-41.19-3.97-10.94,1.35-24.84,6.05-34.69,6.22-13.17,15.23-24.83,26.39-34.17,18.85-15.49,56.57-34.73,79.06-47.5,26.51-15.04,64.95-39.62,92.82-49.47,5.64,3.98,9.8,9.57,15.57,13.42,6.16,4.11,101.78,61.26,102.7,61.43,2.73.52,8.2-2.4,10.64-3.68,18.03-9.44,35.41-20.65,53.02-30.89,33.47-19.21,66.74-38.77,99.81-58.66l40.03-24.29c9.18-5.5,18.8-10.6,27.32-17.1l-1.09-.92,2.27-.54-.86-1.1.79.46c-2.32-9.67-32.2-81.49-37.5-86.02-7.83-6.69-17.53-11.43-26.22-16.96,14.84-10.62,31.78-19.71,49.88-22.92Z"/>
  <path d="M328.42,323.29c.67-.09,1.34-.16,2.01-.22,12.77-1.23,27.21,2.95,37.03,11.28,9.61,8.15,13.31,19.17,14.11,31.45.85,13.13,1.7,30.17-7.64,40.68-15.87,17.87-51.17,31.26-74.67,32.65-14.35-.79-28.4-3.96-39.97-12.98-8.63-6.73-13.78-15.96-14.92-26.85-1.3-12.4-1.22-27.04,7.01-37.08,15.63-19.08,52.82-36.42,77.05-38.93Z"/>
  <path class="cls-3" d="M327.6,334.62c9.73-1.43,21.01.66,29.42,5.82,4.49,2.75,9.24,6.68,10.27,12.11.7,3.67-.91,7.35-3.05,10.25-12.7,17.27-45.69,30.1-66.11,33.52-12.04,1.31-23.3-1.47-33.57-7.91-3.44-2.16-7.05-5.28-7.8-9.46-.61-3.4.99-6.65,3.02-9.28,12.55-16.27,47.84-32.29,67.82-35.05Z"/>
  <path class="cls-3" d="M368.7,374.11c1.3,2.97,1.85,7.23,2.06,10.45.34,5.34-2.71,11.01-6.16,14.91-12.69,14.3-42.21,26.86-60.88,28.02-15.64.98-30.15-3.84-41.91-14.09-1.28-1.4-2.42-2.79-3.35-4.44-1.85-3.29-4.04-8.42-3.05-12.13,1.39-.72.7-.74,2.07.08,10.06,5.98,19.09,10.24,31,11.01,28.76,1.86,59.29-15.52,80.23-33.82Z"/>
  <path class="cls-1" d="M143.51,464.02c28.97,16.28,57.29,33.73,86.02,50.42,13.8,8.02,56.29,30.14,65.89,40.15.83,35.12.14,70.39.14,105.54l.16,251.69c-17.91-8.06-35.48-20.14-52.46-30.18-20.15-11.91-76.82-43.07-91.93-58.13-5.47-5.45-6.54-11.28-7.31-18.78-1.31-12.74-.49-26.13-.49-38.96v-70.6s-.02-231.15-.02-231.15Z"/>
  <path class="cls-1" d="M683.17,350.87c33.03-4.52,69.78,21.37,96.54,38.15-14.01.84-28.42,4.44-41.69,8.89-69.4,23.28-123.41,82.46-155.22,146.88-27.35,55.37-47.39,119.26-26.75,180.21,1.91,5.31,4.37,10.47,6.64,15.64-18.92-10.47-39.39-21.21-56.35-34.67-20.83-16.52-29.71-39.72-32.51-65.45-7.77-71.54,28.08-148.93,72.05-203.34,33.05-40.9,83.43-80.65,137.3-86.32Z"/>
  <path class="cls-3" d="M555.54,93.13c3.86-.37,7.9-.46,11.59.84,11.07,3.88,21.24,10.92,31.49,16.61,18.32,10.16,36.81,20.06,54.8,30.8-53.64,34.13-112.34,66.3-167.56,98.46-2.68,1.44-5.66,2.37-8.51,3.42-24.24-10.33-64.35-35.39-86.21-50.94,3.26-4.08,6.5-7.01,10.8-9.98,32.62-22.51,69-41.38,103.33-61.19,13.93-8.04,35.93-23.09,50.26-28.01Z"/>
  <path class="cls-3" d="M659.37,150.82c5.74,5.81,25.23,56.45,29.95,67.58-17.06,11.7-35.94,21.82-53.71,32.5l-139.38,82.25-19.94,11.57c2.41-30.14,4.12-60.33,6.68-90.47,34.2-18.75,67.86-38.76,101.45-58.58,25.04-14.78,50.4-29.29,74.95-44.85Z"/>
  <path class="cls-3" d="M387.19,203.44c14.95,7.21,29.08,18.29,43.2,27.1,13.3,8.3,27.52,15.2,41.34,22.59-.95,30.02-4.68,59.93-5.35,89.99l-10.45-5.98c-12.93-7.56-84.79-47.2-88.63-55.31-4.39-9.26,16.16-65.62,19.89-78.38Z"/>
</svg>